<svg fill="none" height="500" viewBox="0 0 500 500" width="500" xmlns="http://www.w3.org/2000/svg" xmlns:xlink="http://www.w3.org/1999/xlink"><clipPath id="a"><path d="m0 0h500v500h-500z"/></clipPath><g clip-path="url(#a)"><path d="m0 0h1000v1000h-1000z" fill="#fff"/><path d="m250.006 49.993 175.221 175.221c19.339 19.339 19.339 50.749 0 70.089l-140.177 140.176c-19.339 19.34-50.749 19.34-70.088 0l-140.1772-140.176c-19.3394-19.34-19.3394-50.75 0-70.089z" fill="#add6f2"/><path d="m60.2607 260.26c0 12.68 4.84 25.37 14.52 35.04l140.1803 140.18c19.35 19.35 50.73 19.35 70.09 0l140.18-140.18c9.68-9.68 14.52-22.36 14.52-35.04z" fill="#64b8f2"/><path d="m320.09 260.26-46.77 46.77-93.41 93.41 35.04 35.04c19.35 19.35 50.73 19.35 70.09 0l105.13-105.13-70.09-70.09z" fill="#0c2866"/><g fill="#dd423e"><path d="m390.18 190.18-70.09 70.08-70.09-70.08z"/><path d="m320.09 120.09-70.09 70.09-70.09-70.09z"/><path d="m250 190.18-70.09 70.08-70.09-70.08z"/></g><path d="m109.82 190.18 70.09-70.09 70.09 70.09z" fill="#c41c1c"/><path d="m250 190.18 70.09-70.09 70.09 70.09z" fill="#c41c1c"/><path d="m250 330.35-70.09-70.09 70.09-70.08z" fill="#a31916"/><path d="m250 190.18 70.09 70.08-70.09 70.09z" fill="#c41c1c"/><path d="m250.002 330.348-70.089-70.088-70.088 70.088 70.088 70.089z" fill="#2672b5"/></g></svg>